<svg data-v-423bf9ae="" xmlns="http://www.w3.org/2000/svg" viewBox="0 0 532 90" class="iconLeft"><!----><!----><!----><g data-v-423bf9ae="" id="af9ded04-913c-4eab-9a7c-fbe5e0c92960" fill="white" transform="matrix(5.644402503967285,0,0,5.644402503967285,103.69192504882812,15.338664054870605)"><path d="M1.12 10.50L4.48 10.50L6.05 8.93L6.05 6.13L5.00 5.10L5.77 4.17L5.77 1.61L4.20 0.03L1.12 0.03ZM2.41 4.55L2.41 1.33L3.67 1.33L4.48 2.14L4.48 3.67L3.74 4.55ZM2.41 5.84L3.86 5.84L4.76 6.72L4.76 8.40L3.95 9.21L2.41 9.21ZM9.30 4.68L9.30 1.29L12.32 1.29L12.32 0.01C10.63 0.01 9.72 0.01 8.02 0.01L8.02 10.50L12.52 10.50L12.52 9.23L9.30 9.23L9.30 5.95L11.83 5.95L11.83 4.68ZM13.23 10.50L14.52 10.50L14.92 7.77L17.11 7.77L17.51 10.50L18.80 10.50L17.25 0.01L14.78 0.01ZM16.93 6.50L15.11 6.50L15.88 1.29L16.14 1.29ZM25.91 10.49L27.19 10.49L27.19 0.01L24.68 0.01L24.08 4.17L23.70 7.77L23.66 7.77L23.27 4.12L22.67 0.01C21.53 0.01 21.29 0.01 20.16 0.01L20.16 10.49L21.43 10.49L21.43 1.26L21.59 1.26L22.86 9.60L24.49 9.60L25.76 1.26L25.91 1.26ZM30.24 7.03L28.98 7.03L28.98 8.95L30.52 10.57L32.52 10.57L34.06 8.95L34.06 6.12L30.31 3.49L30.31 2.03L31.08 1.20L31.96 1.20L32.75 2.03L32.75 3.12L34.01 3.12L34.01 1.51L32.51-0.06L30.55-0.06L29.05 1.51L29.05 4.14L32.82 6.78L32.82 8.44L31.99 9.31L31.07 9.31L30.24 8.44ZM36.53 9.20L35.27 9.20L35.27 10.50L36.53 10.50ZM39.26 4.68L39.26 1.29L42.28 1.29L42.28 0.01C40.59 0.01 39.68 0.01 37.98 0.01L37.98 10.50L42.48 10.50L42.48 9.23L39.26 9.23L39.26 5.95L41.79 5.95L41.79 4.68ZM43.90 10.50L45.18 10.50L45.18 5.46L45.02 2.25L45.07 2.25L45.98 5.35L47.61 10.50L48.97 10.50L48.97 0.04L47.70 0.04L47.70 3.72L47.94 7.71L47.89 7.71L46.82 3.79L45.63 0.04L43.90 0.04ZM52.26 4.68L52.26 1.29L55.29 1.29L55.29 0.01C53.59 0.01 52.68 0.01 50.99 0.01L50.99 10.50L55.48 10.50L55.48 9.23L52.26 9.23L52.26 5.95L54.80 5.95L54.80 4.68ZM57.97 1.30L59.26 1.30L60.12 2.16L60.12 4.76L59.25 5.70L57.97 5.70ZM57.97 6.97L59.08 6.97L60.72 10.50L62.12 10.50L60.26 6.48L61.39 5.26L61.39 1.64L59.78 0.01L56.70 0.01L56.70 10.50L57.97 10.50ZM67.23 3.50L68.50 3.50L68.50 1.60L66.95 0.04L64.82 0.04L63.27 1.60L63.27 8.86L64.81 10.50L66.96 10.50L68.50 8.86L68.50 4.80L65.81 4.80L65.81 6.06L67.23 6.06L67.23 8.36L66.37 9.28L65.39 9.28L64.54 8.36L64.54 2.11L65.38 1.26L66.39 1.26L67.23 2.11ZM73.33 6.61L75.74 0L74.40 0L73.54 2.39L72.70 5.12L71.88 2.44L71.02 0L69.65 0L72.06 6.61L72.06 10.50L73.33 10.50Z"></path></g><!----><g data-v-423bf9ae="" id="daa92da2-7388-4e46-bcb8-8da556c1bba6" transform="matrix(1.6073012351989746,0,0,1.6073012351989746,-5.43574333190918,-5.421672821044922)" stroke="none" fill="white"><circle cx="32" cy="32" r="4"></circle><circle cx="24.5" cy="16.5" r="2.5"></circle><circle cx="11.5" cy="52.5" r="1.5"></circle><circle cx="41.5" cy="8.5" r="1.5"></circle><circle cx="41.5" cy="40.5" r="1.5"></circle><path d="M39 50a1.951 1.951 0 0 0-.554.088l2.466 2.466A1.957 1.957 0 0 0 41 52a2 2 0 0 0-2-2zM37 52a1.981 1.981 0 0 0 2.469 1.939l-2.408-2.408A2.016 2.016 0 0 0 37 52z"></path><path d="M47.655 8.781l-.506-.32c-.8-.5-1.619-.957-2.456-1.381a3.312 3.312 0 0 1 .167 2.346 25.959 25.959 0 0 1 5.516 40.95l-1.414-1.414A23.962 23.962 0 0 0 43.8 11.12a3.468 3.468 0 0 1-5.767-2.337A23.991 23.991 0 0 0 10 41.6l-1.832.8A25.759 25.759 0 0 1 6 32 25.951 25.951 0 0 1 38.446 6.826a3.53 3.53 0 0 1 1.777-1.574q-1.215-.382-2.463-.659A27.979 27.979 0 0 0 10.038 49.33 3.465 3.465 0 0 1 11.5 49a3.5 3.5 0 0 1 3.5 3.5 3.465 3.465 0 0 1-.33 1.462A27.99 27.99 0 1 0 47.655 8.781zM32 10a22.169 22.169 0 0 1 3.27.243l-.3 1.977A20.213 20.213 0 0 0 32 12zm-11.633 8.273A4.46 4.46 0 0 1 20 16.5a4.485 4.485 0 0 1 8.435-2.138A17.976 17.976 0 0 1 50 32h-2a15.966 15.966 0 0 0-19.021-15.7c0 .069.021.135.021.2a4.505 4.505 0 0 1-4.5 4.5 4.456 4.456 0 0 1-2.916-1.1A15.846 15.846 0 0 0 16 32a16.019 16.019 0 0 0 16 16v2a17.994 17.994 0 0 1-11.633-31.727zM45 40.5a3.5 3.5 0 0 1-3.5 3.5 3.449 3.449 0 0 1-1.643-.429A13.841 13.841 0 0 1 32 46a14.015 14.015 0 0 1-14-14h2a12.013 12.013 0 0 0 12 12 11.854 11.854 0 0 0 6.422-1.869A3.46 3.46 0 0 1 38 40.5a3.48 3.48 0 0 1 4.763-3.255A11.95 11.95 0 0 0 32 20v-2a13.988 13.988 0 0 1 12.381 20.52A3.475 3.475 0 0 1 45 40.5zm-5.716-11.808a8 8 0 0 0-10.2-4.14l-.732-1.862A10.016 10.016 0 0 1 41.1 27.861zM42 32a9.972 9.972 0 0 1-.393 2.778l-1.921-.555A7.976 7.976 0 0 0 40 32zm-10-6a6 6 0 1 1-6 6 6.006 6.006 0 0 1 6-6zm3.272 15.45a9.99 9.99 0 0 1-9.4-1.555l1.228-1.578a7.993 7.993 0 0 0 7.519 1.244zM24 32a7.979 7.979 0 0 0 1.1 4.038l-1.729 1.012a9.986 9.986 0 0 1 1.561-12.118l1.414 1.414A7.946 7.946 0 0 0 24 32zm8 26a25.759 25.759 0 0 1-10.4-2.171L22.4 54a23.783 23.783 0 0 0 9.6 2zm11-6a3.958 3.958 0 0 1-.586 2.055l1.328 1.328-1.414 1.417-1.345-1.344a3.943 3.943 0 0 1-5.583-1.744A21.861 21.861 0 0 1 10 32h2a19.869 19.869 0 0 0 23.026 19.748 3.951 3.951 0 0 1 .521-1.731l-1.31-1.31 1.414-1.414 1.294 1.294a3.928 3.928 0 0 1 5.011.742A19.977 19.977 0 0 0 43.428 15.6l1.145-1.64a21.976 21.976 0 0 1-1.685 37.14A3.95 3.95 0 0 1 43 52z"></path></g><!----></svg>