<svg data-v-423bf9ae="" xmlns="http://www.w3.org/2000/svg" viewBox="0 0 532 90" class="iconLeftSlogan"><!----><!----><!----><g data-v-423bf9ae="" id="2da8c56d-7d0c-477a-bd30-546fe626a22c" fill="white" transform="matrix(5.644402503967285,0,0,5.644402503967285,103.69192504882812,0.3386642038822174)"><path d="M1.12 10.50L4.48 10.50L6.05 8.93L6.05 6.13L5.00 5.10L5.77 4.17L5.77 1.61L4.20 0.03L1.12 0.03ZM2.41 4.55L2.41 1.33L3.67 1.33L4.48 2.14L4.48 3.67L3.74 4.55ZM2.41 5.84L3.86 5.84L4.76 6.72L4.76 8.40L3.95 9.21L2.41 9.21ZM9.30 4.68L9.30 1.29L12.32 1.29L12.32 0.01C10.63 0.01 9.72 0.01 8.02 0.01L8.02 10.50L12.52 10.50L12.52 9.23L9.30 9.23L9.30 5.95L11.83 5.95L11.83 4.68ZM13.23 10.50L14.52 10.50L14.92 7.77L17.11 7.77L17.51 10.50L18.80 10.50L17.25 0.01L14.78 0.01ZM16.93 6.50L15.11 6.50L15.88 1.29L16.14 1.29ZM25.91 10.49L27.19 10.49L27.19 0.01L24.68 0.01L24.08 4.17L23.70 7.77L23.66 7.77L23.27 4.12L22.67 0.01C21.53 0.01 21.29 0.01 20.16 0.01L20.16 10.49L21.43 10.49L21.43 1.26L21.59 1.26L22.86 9.60L24.49 9.60L25.76 1.26L25.91 1.26ZM30.24 7.03L28.98 7.03L28.98 8.95L30.52 10.57L32.52 10.57L34.06 8.95L34.06 6.12L30.31 3.49L30.31 2.03L31.08 1.20L31.96 1.20L32.75 2.03L32.75 3.12L34.01 3.12L34.01 1.51L32.51-0.06L30.55-0.06L29.05 1.51L29.05 4.14L32.82 6.78L32.82 8.44L31.99 9.31L31.07 9.31L30.24 8.44ZM36.53 9.20L35.27 9.20L35.27 10.50L36.53 10.50ZM39.26 4.68L39.26 1.29L42.28 1.29L42.28 0.01C40.59 0.01 39.68 0.01 37.98 0.01L37.98 10.50L42.48 10.50L42.48 9.23L39.26 9.23L39.26 5.95L41.79 5.95L41.79 4.68ZM43.90 10.50L45.18 10.50L45.18 5.46L45.02 2.25L45.07 2.25L45.98 5.35L47.61 10.50L48.97 10.50L48.97 0.04L47.70 0.04L47.70 3.72L47.94 7.71L47.89 7.71L46.82 3.79L45.63 0.04L43.90 0.04ZM52.26 4.68L52.26 1.29L55.29 1.29L55.29 0.01C53.59 0.01 52.68 0.01 50.99 0.01L50.99 10.50L55.48 10.50L55.48 9.23L52.26 9.23L52.26 5.95L54.80 5.95L54.80 4.68ZM57.97 1.30L59.26 1.30L60.12 2.16L60.12 4.76L59.25 5.70L57.97 5.70ZM57.97 6.97L59.08 6.97L60.72 10.50L62.12 10.50L60.26 6.48L61.39 5.26L61.39 1.64L59.78 0.01L56.70 0.01L56.70 10.50L57.97 10.50ZM67.23 3.50L68.50 3.50L68.50 1.60L66.95 0.04L64.82 0.04L63.27 1.60L63.27 8.86L64.81 10.50L66.96 10.50L68.50 8.86L68.50 4.80L65.81 4.80L65.81 6.06L67.23 6.06L67.23 8.36L66.37 9.28L65.39 9.28L64.54 8.36L64.54 2.11L65.38 1.26L66.39 1.26L67.23 2.11ZM73.33 6.61L75.74 0L74.40 0L73.54 2.39L72.70 5.12L71.88 2.44L71.02 0L69.65 0L72.06 6.61L72.06 10.50L73.33 10.50Z"></path></g><!----><g data-v-423bf9ae="" id="cccdca09-69ec-4a39-8e83-48ef6a8a40a4" transform="matrix(1.6073012351989746,0,0,1.6073012351989746,-5.43574333190918,-5.421672821044922)" stroke="none" fill="white"><circle cx="32" cy="32" r="4"></circle><circle cx="24.5" cy="16.5" r="2.5"></circle><circle cx="11.5" cy="52.5" r="1.5"></circle><circle cx="41.5" cy="8.5" r="1.5"></circle><circle cx="41.5" cy="40.5" r="1.5"></circle><path d="M39 50a1.951 1.951 0 0 0-.554.088l2.466 2.466A1.957 1.957 0 0 0 41 52a2 2 0 0 0-2-2zM37 52a1.981 1.981 0 0 0 2.469 1.939l-2.408-2.408A2.016 2.016 0 0 0 37 52z"></path><path d="M47.655 8.781l-.506-.32c-.8-.5-1.619-.957-2.456-1.381a3.312 3.312 0 0 1 .167 2.346 25.959 25.959 0 0 1 5.516 40.95l-1.414-1.414A23.962 23.962 0 0 0 43.8 11.12a3.468 3.468 0 0 1-5.767-2.337A23.991 23.991 0 0 0 10 41.6l-1.832.8A25.759 25.759 0 0 1 6 32 25.951 25.951 0 0 1 38.446 6.826a3.53 3.53 0 0 1 1.777-1.574q-1.215-.382-2.463-.659A27.979 27.979 0 0 0 10.038 49.33 3.465 3.465 0 0 1 11.5 49a3.5 3.5 0 0 1 3.5 3.5 3.465 3.465 0 0 1-.33 1.462A27.99 27.99 0 1 0 47.655 8.781zM32 10a22.169 22.169 0 0 1 3.27.243l-.3 1.977A20.213 20.213 0 0 0 32 12zm-11.633 8.273A4.46 4.46 0 0 1 20 16.5a4.485 4.485 0 0 1 8.435-2.138A17.976 17.976 0 0 1 50 32h-2a15.966 15.966 0 0 0-19.021-15.7c0 .069.021.135.021.2a4.505 4.505 0 0 1-4.5 4.5 4.456 4.456 0 0 1-2.916-1.1A15.846 15.846 0 0 0 16 32a16.019 16.019 0 0 0 16 16v2a17.994 17.994 0 0 1-11.633-31.727zM45 40.5a3.5 3.5 0 0 1-3.5 3.5 3.449 3.449 0 0 1-1.643-.429A13.841 13.841 0 0 1 32 46a14.015 14.015 0 0 1-14-14h2a12.013 12.013 0 0 0 12 12 11.854 11.854 0 0 0 6.422-1.869A3.46 3.46 0 0 1 38 40.5a3.48 3.48 0 0 1 4.763-3.255A11.95 11.95 0 0 0 32 20v-2a13.988 13.988 0 0 1 12.381 20.52A3.475 3.475 0 0 1 45 40.5zm-5.716-11.808a8 8 0 0 0-10.2-4.14l-.732-1.862A10.016 10.016 0 0 1 41.1 27.861zM42 32a9.972 9.972 0 0 1-.393 2.778l-1.921-.555A7.976 7.976 0 0 0 40 32zm-10-6a6 6 0 1 1-6 6 6.006 6.006 0 0 1 6-6zm3.272 15.45a9.99 9.99 0 0 1-9.4-1.555l1.228-1.578a7.993 7.993 0 0 0 7.519 1.244zM24 32a7.979 7.979 0 0 0 1.1 4.038l-1.729 1.012a9.986 9.986 0 0 1 1.561-12.118l1.414 1.414A7.946 7.946 0 0 0 24 32zm8 26a25.759 25.759 0 0 1-10.4-2.171L22.4 54a23.783 23.783 0 0 0 9.6 2zm11-6a3.958 3.958 0 0 1-.586 2.055l1.328 1.328-1.414 1.417-1.345-1.344a3.943 3.943 0 0 1-5.583-1.744A21.861 21.861 0 0 1 10 32h2a19.869 19.869 0 0 0 23.026 19.748 3.951 3.951 0 0 1 .521-1.731l-1.31-1.31 1.414-1.414 1.294 1.294a3.928 3.928 0 0 1 5.011.742A19.977 19.977 0 0 0 43.428 15.6l1.145-1.64a21.976 21.976 0 0 1-1.685 37.14A3.95 3.95 0 0 1 43 52z"></path></g><!----><g data-v-423bf9ae="" id="82bbec13-701b-4c86-9e03-aa8b51f59472" fill="white" transform="matrix(2.2259910106658936,0,0,2.2259910106658936,108.85613250732422,58.441810607910156)"><path d="M6.90 1.19C6.90 1.19 5.04 0.81 3.77 0.81C1.83 0.81 0.52 1.67 0.52 3.64C0.52 5.17 1.33 5.89 3.47 6.51C4.84 6.90 5.18 7.17 5.18 7.76C5.18 8.50 4.73 8.99 3.70 8.99C2.70 8.99 0.83 8.74 0.83 8.74L0.63 10.23C0.63 10.23 2.51 10.67 3.81 10.67C5.68 10.67 7.10 9.70 7.10 7.63C7.10 6.05 6.47 5.47 4.41 4.82C2.81 4.31 2.44 4.10 2.44 3.50C2.44 2.87 2.93 2.49 3.96 2.49C4.77 2.49 6.75 2.72 6.75 2.72ZM8.48 13.44L10.36 13.44L10.36 10.56C10.36 10.56 11.00 10.67 11.52 10.67C13.66 10.67 14.70 9.93 14.70 6.94C14.70 4.34 13.79 3.33 11.94 3.33C11.26 3.33 10.35 3.88 10.35 3.88L10.35 3.50L8.48 3.50ZM11.58 5.01C12.32 5.01 12.80 5.53 12.80 6.94C12.80 8.43 12.50 9.04 11.38 9.04C10.99 9.04 10.36 8.96 10.36 8.96L10.36 5.29C10.36 5.29 11.00 5.01 11.58 5.01ZM21.46 5.68C21.46 4.05 20.73 3.33 18.91 3.33C17.57 3.33 16.07 3.74 16.07 3.74L16.13 5.04C16.13 5.04 17.84 4.93 18.76 4.93C19.32 4.93 19.59 5.08 19.59 5.68L19.59 6.12L18.09 6.23C16.55 6.34 15.64 6.79 15.64 8.37C15.64 9.86 16.34 10.67 17.81 10.67C18.86 10.67 19.87 10.18 19.87 10.18C20.45 10.57 20.93 10.67 21.87 10.67L21.92 9.25C21.55 9.18 21.49 9.02 21.46 8.60ZM19.59 7.42L19.59 8.92C19.59 8.92 18.82 9.14 18.21 9.14C17.71 9.14 17.53 8.81 17.53 8.32C17.53 7.81 17.82 7.57 18.31 7.53ZM25.87 3.33C23.79 3.33 22.92 4.45 22.92 6.93C22.92 9.56 23.74 10.67 25.83 10.67C26.61 10.67 28.11 10.37 28.11 10.37L28.06 8.88C28.06 8.88 26.96 8.99 26.43 8.99C25.09 8.99 24.82 8.50 24.82 6.93C24.82 5.53 25.07 5.01 26.42 5.01C26.95 5.01 28.06 5.12 28.06 5.12L28.11 3.64C28.11 3.64 26.68 3.33 25.87 3.33ZM32.40 9.02C31.39 9.02 31.00 8.64 30.98 7.80L35.10 7.80L35.24 6.50C35.24 4.38 34.24 3.33 32.19 3.33C30.14 3.33 29.09 4.61 29.09 7.10C29.09 9.62 29.99 10.67 32.10 10.67C33.40 10.67 35.01 10.28 35.01 10.28L34.99 8.89C34.99 8.89 33.54 9.02 32.40 9.02ZM30.97 6.37C30.98 5.31 31.29 4.87 32.19 4.87C33.07 4.87 33.39 5.24 33.39 6.37ZM39.83 0.98L39.83 10.50L43.62 10.50C45.53 10.50 46.72 9.67 46.72 7.77C46.72 6.54 46.30 5.95 45.49 5.60C46.24 5.12 46.54 4.58 46.54 3.50C46.54 1.68 45.49 0.98 43.57 0.98ZM43.53 6.52C44.30 6.52 44.76 6.89 44.76 7.67C44.76 8.61 44.32 8.85 43.53 8.85L41.76 8.85L41.76 6.52ZM43.47 2.63C44.20 2.63 44.58 2.97 44.58 3.75C44.58 4.51 44.24 4.90 43.48 4.90L41.76 4.90L41.76 2.63ZM53.55 5.68C53.55 4.05 52.82 3.33 51.00 3.33C49.66 3.33 48.16 3.74 48.16 3.74L48.22 5.04C48.22 5.04 49.92 4.93 50.85 4.93C51.41 4.93 51.67 5.08 51.67 5.68L51.67 6.12L50.18 6.23C48.64 6.34 47.73 6.79 47.73 8.37C47.73 9.86 48.43 10.67 49.90 10.67C50.95 10.67 51.95 10.18 51.95 10.18C52.54 10.57 53.02 10.67 53.96 10.67L54.01 9.25C53.63 9.18 53.58 9.02 53.55 8.60ZM51.67 7.42L51.67 8.92C51.67 8.92 50.90 9.14 50.30 9.14C49.80 9.14 49.62 8.81 49.62 8.32C49.62 7.81 49.91 7.57 50.40 7.53ZM60.40 3.70C60.40 3.70 58.69 3.35 57.68 3.35C56.21 3.35 54.98 4.00 54.98 5.63C54.98 7.17 55.78 7.53 57.29 7.78C58.58 7.99 58.73 8.13 58.73 8.44C58.73 8.81 58.49 8.99 57.60 8.99C56.88 8.99 55.15 8.76 55.15 8.76L55.09 10.33C55.09 10.33 56.74 10.67 57.78 10.67C59.53 10.67 60.59 10.04 60.59 8.40C60.59 6.99 60.02 6.51 58.39 6.22C57.11 5.98 56.84 5.91 56.84 5.59C56.84 5.21 57.01 5.03 57.82 5.03C58.63 5.03 60.37 5.25 60.37 5.25ZM64.90 9.02C63.90 9.02 63.50 8.64 63.49 7.80L67.61 7.80L67.75 6.50C67.75 4.38 66.75 3.33 64.69 3.33C62.65 3.33 61.60 4.61 61.60 7.10C61.60 9.62 62.50 10.67 64.61 10.67C65.91 10.67 67.52 10.28 67.52 10.28L67.49 8.89C67.49 8.89 66.05 9.02 64.90 9.02ZM63.48 6.37C63.49 5.31 63.80 4.87 64.69 4.87C65.58 4.87 65.90 5.24 65.90 6.37ZM75.04 0.70L73.16 0.70L73.16 3.53C73.16 3.53 72.17 3.33 71.65 3.33C69.75 3.33 68.75 4.41 68.75 6.97C68.75 9.44 69.37 10.67 71.48 10.67C72.20 10.67 73.18 10.21 73.18 10.21L73.18 10.50L75.04 10.50ZM71.81 8.99C70.92 8.99 70.66 8.40 70.66 6.97C70.66 5.56 71.09 4.96 71.79 4.96C72.39 4.96 73.16 5.10 73.16 5.10L73.16 8.78C73.16 8.78 72.46 8.99 71.81 8.99ZM85.89 1.19C85.89 1.19 84.03 0.81 82.75 0.81C80.82 0.81 79.51 1.67 79.51 3.64C79.51 5.17 80.32 5.89 82.46 6.51C83.83 6.90 84.17 7.17 84.17 7.76C84.17 8.50 83.72 8.99 82.68 8.99C81.69 8.99 79.81 8.74 79.81 8.74L79.62 10.23C79.62 10.23 81.49 10.67 82.80 10.67C84.67 10.67 86.09 9.70 86.09 7.63C86.09 6.05 85.46 5.47 83.40 4.82C81.80 4.31 81.42 4.10 81.42 3.50C81.42 2.87 81.91 2.49 82.95 2.49C83.76 2.49 85.74 2.72 85.74 2.72ZM90.33 3.33C87.89 3.33 87.11 4.83 87.11 6.99C87.11 9.14 87.89 10.67 90.33 10.67C92.76 10.67 93.55 9.14 93.55 6.99C93.55 4.83 92.76 3.33 90.33 3.33ZM90.33 9.07C89.29 9.07 89.01 8.34 89.01 6.99C89.01 5.63 89.29 4.93 90.33 4.93C91.36 4.93 91.64 5.63 91.64 6.99C91.64 8.34 91.36 9.07 90.33 9.07ZM95.00 10.50L96.88 10.50L96.88 0.70L95.00 0.70ZM104.06 5.68C104.06 4.05 103.33 3.33 101.51 3.33C100.17 3.33 98.67 3.74 98.67 3.74L98.73 5.04C98.73 5.04 100.44 4.93 101.36 4.93C101.92 4.93 102.19 5.08 102.19 5.68L102.19 6.12L100.69 6.23C99.15 6.34 98.24 6.79 98.24 8.37C98.24 9.86 98.94 10.67 100.41 10.67C101.46 10.67 102.47 10.18 102.47 10.18C103.05 10.57 103.53 10.67 104.47 10.67L104.52 9.25C104.15 9.18 104.09 9.02 104.06 8.60ZM102.19 7.42L102.19 8.92C102.19 8.92 101.42 9.14 100.81 9.14C100.31 9.14 100.13 8.81 100.13 8.32C100.13 7.81 100.42 7.57 100.91 7.53ZM105.85 10.50L107.73 10.50L107.73 5.81C107.73 5.81 108.72 5.46 109.96 5.22L109.96 3.33C108.89 3.54 107.72 4.24 107.72 4.24L107.72 3.50L105.85 3.50ZM117.81 7.73C120.05 7.73 121.20 6.50 121.20 4.28C121.20 2.07 120.05 0.98 117.81 0.98L114.31 0.98L114.31 10.50L116.24 10.50L116.24 7.73ZM116.24 6.08L116.24 2.63L117.80 2.63C118.76 2.63 119.24 3.09 119.24 4.28C119.24 5.49 118.76 6.08 117.80 6.08ZM125.24 3.33C122.81 3.33 122.02 4.83 122.02 6.99C122.02 9.14 122.81 10.67 125.24 10.67C127.68 10.67 128.46 9.14 128.46 6.99C128.46 4.83 127.68 3.33 125.24 3.33ZM125.24 9.07C124.21 9.07 123.93 8.34 123.93 6.99C123.93 5.63 124.21 4.93 125.24 4.93C126.28 4.93 126.56 5.63 126.56 6.99C126.56 8.34 126.28 9.07 125.24 9.07ZM129.30 3.50L130.63 10.50L133.57 10.50L134.37 6.22L135.17 10.50L138.11 10.50L139.44 3.50L137.59 3.50L136.74 8.90L136.40 8.90L135.34 3.64L133.41 3.64L132.34 8.90L132.01 8.90L131.15 3.50ZM143.60 9.02C142.59 9.02 142.20 8.64 142.18 7.80L146.30 7.80L146.44 6.50C146.44 4.38 145.45 3.33 143.39 3.33C141.34 3.33 140.29 4.61 140.29 7.10C140.29 9.62 141.19 10.67 143.30 10.67C144.61 10.67 146.22 10.28 146.22 10.28L146.19 8.89C146.19 8.89 144.75 9.02 143.60 9.02ZM142.17 6.37C142.18 5.31 142.49 4.87 143.39 4.87C144.27 4.87 144.59 5.24 144.59 6.37ZM147.78 10.50L149.66 10.50L149.66 5.81C149.66 5.81 150.65 5.46 151.89 5.22L151.89 3.33C150.82 3.54 149.65 4.24 149.65 4.24L149.65 3.50L147.78 3.50Z"></path></g></svg>