<svg data-v-423bf9ae="" xmlns="http://www.w3.org/2000/svg" viewBox="0 0 421.1852924581767 60" class="font"><!----><!----><!----><g data-v-423bf9ae="" id="5d2817b5-bf03-4aaa-8e45-f9a10e0bda66" fill="black" transform="matrix(5.644402503967285,0,0,5.644402503967285,-6.321732521057129,0.3386642038822174)"><path d="M1.12 10.50L4.48 10.50L6.05 8.93L6.05 6.13L5.00 5.10L5.77 4.17L5.77 1.61L4.20 0.03L1.12 0.03ZM2.41 4.55L2.41 1.33L3.67 1.33L4.48 2.14L4.48 3.67L3.74 4.55ZM2.41 5.84L3.86 5.84L4.76 6.72L4.76 8.40L3.95 9.21L2.41 9.21ZM9.30 4.68L9.30 1.29L12.32 1.29L12.32 0.01C10.63 0.01 9.72 0.01 8.02 0.01L8.02 10.50L12.52 10.50L12.52 9.23L9.30 9.23L9.30 5.95L11.83 5.95L11.83 4.68ZM13.23 10.50L14.52 10.50L14.92 7.77L17.11 7.77L17.51 10.50L18.80 10.50L17.25 0.01L14.78 0.01ZM16.93 6.50L15.11 6.50L15.88 1.29L16.14 1.29ZM25.91 10.49L27.19 10.49L27.19 0.01L24.68 0.01L24.08 4.17L23.70 7.77L23.66 7.77L23.27 4.12L22.67 0.01C21.53 0.01 21.29 0.01 20.16 0.01L20.16 10.49L21.43 10.49L21.43 1.26L21.59 1.26L22.86 9.60L24.49 9.60L25.76 1.26L25.91 1.26ZM30.24 7.03L28.98 7.03L28.98 8.95L30.52 10.57L32.52 10.57L34.06 8.95L34.06 6.12L30.31 3.49L30.31 2.03L31.08 1.20L31.96 1.20L32.75 2.03L32.75 3.12L34.01 3.12L34.01 1.51L32.51-0.06L30.55-0.06L29.05 1.51L29.05 4.14L32.82 6.78L32.82 8.44L31.99 9.31L31.07 9.31L30.24 8.44ZM36.53 9.20L35.27 9.20L35.27 10.50L36.53 10.50ZM39.26 4.68L39.26 1.29L42.28 1.29L42.28 0.01C40.59 0.01 39.68 0.01 37.98 0.01L37.98 10.50L42.48 10.50L42.48 9.23L39.26 9.23L39.26 5.95L41.79 5.95L41.79 4.68ZM43.90 10.50L45.18 10.50L45.18 5.46L45.02 2.25L45.07 2.25L45.98 5.35L47.61 10.50L48.97 10.50L48.97 0.04L47.70 0.04L47.70 3.72L47.94 7.71L47.89 7.71L46.82 3.79L45.63 0.04L43.90 0.04ZM52.26 4.68L52.26 1.29L55.29 1.29L55.29 0.01C53.59 0.01 52.68 0.01 50.99 0.01L50.99 10.50L55.48 10.50L55.48 9.23L52.26 9.23L52.26 5.95L54.80 5.95L54.80 4.68ZM57.97 1.30L59.26 1.30L60.12 2.16L60.12 4.76L59.25 5.70L57.97 5.70ZM57.97 6.97L59.08 6.97L60.72 10.50L62.12 10.50L60.26 6.48L61.39 5.26L61.39 1.64L59.78 0.01L56.70 0.01L56.70 10.50L57.97 10.50ZM67.23 3.50L68.50 3.50L68.50 1.60L66.95 0.04L64.82 0.04L63.27 1.60L63.27 8.86L64.81 10.50L66.96 10.50L68.50 8.86L68.50 4.80L65.81 4.80L65.81 6.06L67.23 6.06L67.23 8.36L66.37 9.28L65.39 9.28L64.54 8.36L64.54 2.11L65.38 1.26L66.39 1.26L67.23 2.11ZM73.33 6.61L75.74 0L74.40 0L73.54 2.39L72.70 5.12L71.88 2.44L71.02 0L69.65 0L72.06 6.61L72.06 10.50L73.33 10.50Z"></path></g><!----><!----></svg>